<svg height="638" width="720" xmlns="http://www.w3.org/2000/svg">
<rect height="638" fill="#555" width="720"></rect>
<text fill="#7f7" font-family="Courier New" font-size="12" xml:space="preserve">
<tspan x="10" y="26">3 megabytes installed</tspan>
<tspan x="10" y="42"></tspan>
<tspan x="10" y="58">node_modules</tspan>
<tspan x="10" y="74">└─┬ socket.io-client@1.7.3 </tspan>
<tspan x="10" y="90">  ├── backo2@1.0.2 </tspan>
<tspan x="10" y="106">  ├── component-bind@1.0.0 </tspan>
<tspan x="10" y="122">  ├── component-emitter@1.2.1 </tspan>
<tspan x="10" y="138">  ├─┬ debug@2.3.3 </tspan>
<tspan x="10" y="154">  │ └── ms@0.7.2 </tspan>
<tspan x="10" y="170">  ├─┬ engine.io-client@1.8.3 </tspan>
<tspan x="10" y="186">  │ ├── component-inherit@0.0.3 </tspan>
<tspan x="10" y="202">  │ ├─┬ engine.io-parser@1.3.2 </tspan>
<tspan x="10" y="218">  │ │ ├── after@0.8.2 </tspan>
<tspan x="10" y="234">  │ │ ├── arraybuffer.slice@0.0.6 </tspan>
<tspan x="10" y="250">  │ │ ├── base64-arraybuffer@0.1.5 </tspan>
<tspan x="10" y="266">  │ │ ├── blob@0.0.4 </tspan>
<tspan x="10" y="282">  │ │ └── wtf-8@1.0.0 </tspan>
<tspan x="10" y="298">  │ ├── has-cors@1.1.0 </tspan>
<tspan x="10" y="314">  │ ├── parsejson@0.0.3 </tspan>
<tspan x="10" y="330">  │ ├── parseqs@0.0.5 </tspan>
<tspan x="10" y="346">  │ ├─┬ ws@1.1.2 </tspan>
<tspan x="10" y="362">  │ │ ├── options@0.0.6 </tspan>
<tspan x="10" y="378">  │ │ └── ultron@1.0.2 </tspan>
<tspan x="10" y="394">  │ ├── xmlhttprequest-ssl@1.5.3 </tspan>
<tspan x="10" y="410">  │ └── yeast@0.1.2 </tspan>
<tspan x="10" y="426">  ├─┬ has-binary@0.1.7 </tspan>
<tspan x="10" y="442">  │ └── isarray@0.0.1 </tspan>
<tspan x="10" y="458">  ├── indexof@0.0.1 </tspan>
<tspan x="10" y="474">  ├── object-component@0.0.3 </tspan>
<tspan x="10" y="490">  ├─┬ parseuri@0.0.5 </tspan>
<tspan x="10" y="506">  │ └─┬ better-assert@1.0.2 </tspan>
<tspan x="10" y="522">  │   └── callsite@1.0.0 </tspan>
<tspan x="10" y="538">  ├─┬ socket.io-parser@2.3.1 </tspan>
<tspan x="10" y="554">  │ ├── component-emitter@1.1.2 </tspan>
<tspan x="10" y="570">  │ ├─┬ debug@2.2.0 </tspan>
<tspan x="10" y="586">  │ │ └── ms@0.7.1 </tspan>
<tspan x="10" y="602">  │ └── json3@3.3.2 </tspan>
<tspan x="10" y="618">  └── to-array@0.1.4</tspan>
</text>
</svg>
